<svg width="622" height="118" viewBox="0 0 622 118" fill="none" xmlns="http://www.w3.org/2000/svg">
    <path
        d="M108.112 23.472C106.832 25.136 104.4 28.208 103.248 30C97.232 39.984 85.072 56.24 72.4 65.2L59.088 54.576C69.456 48.304 79.44 37.04 82.768 30.768C74.96 30.768 24.016 30.768 15.952 30.768C10.704 30.768 6.352 31.024 0.336 31.664V13.744C5.328 14.512 10.704 15.152 15.952 15.152C24.016 15.152 78.288 15.152 84.944 15.152C88.528 15.152 95.568 14.64 98 14L108.112 23.472ZM56.016 40.624C56.016 72.368 55.248 98.48 20.432 117.296L5.456 105.136C9.68 103.728 14.288 101.552 19.024 97.968C35.152 86.704 38.224 73.264 38.224 52.272C38.224 48.176 38.096 44.848 37.456 40.624H56.016ZM208.464 6.31999C211.664 11.056 216.144 19.12 218.576 23.856L208.336 28.336C205.648 23.088 201.808 15.536 198.352 10.544L208.464 6.31999ZM223.568 0.559998C226.896 5.424 231.632 13.488 233.936 17.968L223.696 22.448C221.136 17.072 216.912 9.64799 213.456 4.784L223.568 0.559998ZM153.168 11.952C152.656 15.792 152.272 21.552 152.272 25.264C152.272 33.072 152.272 80.176 152.272 89.776C152.272 95.408 154.832 96.816 160.592 97.84C164.432 98.48 169.68 98.608 175.312 98.608C188.752 98.608 209.36 97.072 219.984 94.256V112.944C207.824 114.736 188.496 115.504 174.416 115.504C166.096 115.504 158.288 114.992 152.784 114.096C141.776 112.048 135.248 106.032 135.248 94.896C135.248 80.176 135.248 33.2 135.248 25.264C135.248 22.32 134.864 15.792 134.352 11.952H153.168ZM144.72 51.248C161.232 47.664 183.12 40.752 196.56 35.248C201.04 33.328 205.392 31.28 210.512 28.336L217.296 44.464C212.432 46.512 206.672 48.944 202.448 50.608C187.344 56.368 162.256 63.92 144.848 68.016L144.72 51.248ZM340.304 7.6C343.504 12.336 348.112 20.4 350.544 25.136L340.304 29.488C337.616 24.24 333.648 16.688 330.192 11.696L340.304 7.6ZM355.536 1.84C358.864 6.576 363.6 14.768 365.776 19.248L355.664 23.6C352.976 18.224 348.88 10.8 345.424 5.936L355.536 1.84ZM307.536 8.752C307.152 11.696 306.768 17.072 306.64 20.144C305.232 71.088 293.2 96.944 264.912 117.168L249.936 105.136C255.312 102.192 261.712 97.84 266.832 92.592C283.6 75.952 289.488 54.192 289.616 20.528C289.616 17.584 289.104 11.824 288.592 8.752H307.536ZM350.928 36.144C350.544 38.192 350.16 41.52 350.16 42.928C349.648 56.752 347.984 92.464 342.48 105.52C339.792 112.048 334.8 115.376 326.096 115.376C318.672 115.376 311.12 114.864 304.848 114.352L302.8 97.2C309.2 98.352 315.728 98.992 320.848 98.992C324.944 98.992 326.736 97.584 328.016 94.512C331.728 86.448 333.52 60.848 333.52 47.024H271.056C266.704 47.024 259.536 47.024 254.16 47.536V30.768C259.536 31.28 266.064 31.664 270.928 31.664H330.192C333.52 31.664 336.848 31.28 339.92 30.768L350.928 36.144ZM377.936 60.336C400.848 54.448 419.536 46.128 433.872 37.296C446.928 29.232 461.52 16.432 469.84 6.31999L483.664 19.376C472.016 31.152 456.4 43.184 441.296 52.272C426.832 60.848 406.096 70.448 385.872 76.464L377.936 60.336ZM431.184 45.616L449.36 41.264V98.992C449.36 104.624 449.616 112.56 450.512 115.76H430.16C430.672 112.688 431.184 104.624 431.184 98.992V45.616ZM562.256 107.184C562.896 104.752 563.28 101.296 563.28 97.84C563.28 91.056 563.28 33.584 563.28 23.216C563.28 17.456 562.384 12.464 562.384 12.208H581.328C581.328 12.464 580.432 17.584 580.432 23.344C580.432 33.584 580.432 82.352 580.432 90.16C590.928 85.68 603.472 75.568 612.176 63.152L621.904 77.36C611.28 91.184 592.976 105.008 578.512 112.304C575.824 113.712 574.288 115.12 573.008 116.016L562.256 107.184ZM502.992 105.392C514.384 97.456 521.296 85.68 524.752 74.672C528.464 63.792 528.592 39.472 528.592 24.112C528.592 18.864 528.08 15.536 527.312 12.336H546.128C546.128 12.848 545.232 18.608 545.232 23.856C545.232 39.088 544.848 66.096 541.52 79.024C537.552 93.36 529.616 106.032 518.608 115.76L502.992 105.392Z"
        fill="white" />
</svg>