<svg width="527" height="97" viewBox="0 0 527 97" fill="none" xmlns="http://www.w3.org/2000/svg">
    <path
        d="M28.1818 95H0.909091L31.6364 1.90909H66.1818L96.9091 95H69.6364L49.2727 27.5455H48.5455L28.1818 95ZM23.0909 58.2727H74.3636V77.1818H23.0909V58.2727ZM105.875 95V1.90909H146.239C153.33 1.90909 159.284 2.86363 164.102 4.77273C168.951 6.68182 172.602 9.37878 175.057 12.8636C177.542 16.3485 178.784 20.4545 178.784 25.1818C178.784 28.6061 178.027 31.7273 176.511 34.5455C175.027 37.3636 172.936 39.7273 170.239 41.6364C167.542 43.5151 164.39 44.8182 160.784 45.5455V46.4545C164.784 46.6061 168.42 47.6212 171.693 49.5C174.966 51.3485 177.572 53.9091 179.511 57.1818C181.451 60.4242 182.42 64.2424 182.42 68.6364C182.42 73.7273 181.087 78.2576 178.42 82.2273C175.784 86.197 172.027 89.3182 167.148 91.5909C162.269 93.8636 156.451 95 149.693 95H105.875ZM131.148 74.8182H142.966C147.208 74.8182 150.39 74.0303 152.511 72.4545C154.633 70.8485 155.693 68.4848 155.693 65.3636C155.693 63.1818 155.193 61.3333 154.193 59.8182C153.193 58.303 151.769 57.1515 149.92 56.3636C148.102 55.5758 145.905 55.1818 143.33 55.1818H131.148V74.8182ZM131.148 39.5455H141.511C143.723 39.5455 145.678 39.197 147.375 38.5C149.072 37.803 150.39 36.803 151.33 35.5C152.299 34.1667 152.784 32.5455 152.784 30.6364C152.784 27.7576 151.754 25.5606 149.693 24.0455C147.633 22.5 145.027 21.7273 141.875 21.7273H131.148V39.5455ZM216.648 1.90909V95H191.375V1.90909H216.648ZM289.08 32.6364C288.686 31.0303 288.064 29.6212 287.216 28.4091C286.367 27.1667 285.307 26.1212 284.034 25.2727C282.792 24.3939 281.337 23.7424 279.67 23.3182C278.034 22.8636 276.231 22.6364 274.261 22.6364C270.019 22.6364 266.398 23.6515 263.398 25.6818C260.428 27.7121 258.155 30.6364 256.58 34.4545C255.034 38.2727 254.261 42.8788 254.261 48.2727C254.261 53.7273 255.004 58.3939 256.489 62.2727C257.973 66.1515 260.186 69.1212 263.125 71.1818C266.064 73.2424 269.716 74.2727 274.08 74.2727C277.928 74.2727 281.125 73.7121 283.67 72.5909C286.246 71.4697 288.17 69.8788 289.443 67.8182C290.716 65.7576 291.352 63.3333 291.352 60.5455L295.716 61H274.443V43H315.716V55.9091C315.716 64.3939 313.913 71.6515 310.307 77.6818C306.731 83.6818 301.792 88.2879 295.489 91.5C289.216 94.6818 282.019 96.2727 273.898 96.2727C264.837 96.2727 256.883 94.3485 250.034 90.5C243.186 86.6515 237.837 81.1667 233.989 74.0455C230.17 66.9242 228.261 58.4545 228.261 48.6364C228.261 40.9394 229.428 34.1212 231.761 28.1818C234.125 22.2424 237.398 17.2273 241.58 13.1364C245.761 9.01515 250.595 5.90909 256.08 3.81818C261.564 1.69697 267.443 0.63636 273.716 0.63636C279.231 0.63636 284.352 1.42424 289.08 3C293.837 4.54545 298.034 6.75757 301.67 9.63636C305.337 12.4848 308.292 15.8636 310.534 19.7727C312.777 23.6818 314.14 27.9697 314.625 32.6364H289.08ZM348.807 95H321.534L352.261 1.90909H386.807L417.534 95H390.261L369.898 27.5455H369.17L348.807 95ZM343.716 58.2727H394.989V77.1818H343.716V58.2727ZM451.773 1.90909V95H426.5V1.90909H451.773ZM463.75 95V1.90909H489.023V74.6364H526.659V95H463.75Z"
        fill="white" />
</svg>