<svg width="553" height="94" viewBox="0 0 553 94" fill="none" xmlns="http://www.w3.org/2000/svg">
    <path
        d="M0 94V0.909088H25.2727V37.2727H58.7273V0.909088H84V94H58.7273V57.6364H25.2727V94H0ZM121.273 0.909088V94H96V0.909088H121.273ZM133.25 94V0.909088H158.523V73.6364H196.159V94H133.25ZM206.375 94V0.909088H231.648V73.6364H269.284V94H206.375ZM303.682 94H276.409L307.136 0.909088H341.682L372.409 94H345.136L324.773 26.5455H324.045L303.682 94ZM298.591 57.2727H349.864V76.1818H298.591V57.2727ZM381.375 94V0.909088H421.557C428.466 0.909088 434.511 2.16666 439.693 4.68182C444.875 7.19697 448.905 10.8182 451.784 15.5455C454.663 20.2727 456.102 25.9394 456.102 32.5455C456.102 39.2121 454.617 44.8333 451.648 49.4091C448.708 53.9848 444.572 57.4394 439.239 59.7727C433.936 62.1061 427.739 63.2727 420.648 63.2727H396.648V43.6364H415.557C418.527 43.6364 421.057 43.2727 423.148 42.5455C425.269 41.7879 426.89 40.5909 428.011 38.9545C429.163 37.3182 429.739 35.1818 429.739 32.5455C429.739 29.8788 429.163 27.7121 428.011 26.0455C426.89 24.3485 425.269 23.1061 423.148 22.3182C421.057 21.5 418.527 21.0909 415.557 21.0909H406.648V94H381.375ZM435.92 51.2727L459.193 94H431.739L409.011 51.2727H435.92ZM458.682 0.909088H486.864L505.045 38.7273H505.773L523.955 0.909088H552.136L517.955 64.7273V94H492.864V64.7273L458.682 0.909088Z"
        fill="white" />
</svg>