<svg width="476" height="109" viewBox="0 0 476 109" fill="none" xmlns="http://www.w3.org/2000/svg">
    <path
        d="M19.16 0.263992C18.648 4.104 18.264 9.864 18.264 13.576C18.264 21.384 18.264 68.488 18.264 78.088C18.264 83.72 20.824 85.128 26.584 86.152C30.424 86.792 35.672 87.048 41.432 87.048C54.744 87.048 75.48 85.384 85.976 82.568V101.256C73.816 103.048 54.488 103.816 40.408 103.816C32.088 103.816 24.28 103.304 18.776 102.408C7.768 100.36 1.24 94.344 1.24 83.208C1.24 68.488 1.24 21.512 1.24 13.576C1.24 9.73599 0.856001 3.336 0.344002 0.263992H19.16ZM10.84 39.56C27.224 35.976 49.752 28.936 63.064 23.304C67.672 21.512 71.896 19.464 77.016 16.392L83.928 32.648C78.936 34.696 73.176 37.128 68.952 38.664C53.848 44.552 28.248 52.232 10.84 56.328V39.56ZM131.544 2.824C135 3.336 140.504 3.592 144.856 3.592C152.92 3.592 186.584 3.592 194.008 3.592C198.104 3.592 204.376 3.336 207.832 2.824V19.464C204.504 19.208 198.488 18.952 193.752 18.952C186.712 18.952 152.408 18.952 144.856 18.952C140.632 18.952 135.256 19.08 131.544 19.464V2.824ZM218.712 40.072C217.816 41.736 216.664 44.04 216.28 45.32C212.312 57.736 206.808 70.28 197.336 80.776C184.408 95.24 168.024 103.816 151.64 108.552L138.84 94.088C158.168 89.992 173.4 81.672 183.256 71.56C190.04 64.648 194.136 56.584 196.312 49.544C189.912 49.544 146.008 49.544 134.616 49.544C131.416 49.544 125.016 49.672 119.64 50.056V33.416C125.144 33.928 130.52 34.312 134.616 34.312C143.32 34.312 189.144 34.312 197.848 34.312C202.072 34.312 205.528 33.8 207.32 32.904L218.712 40.072ZM333.656 1.672C333.4 5.256 333.272 9.352 333.272 14.6C333.272 21.128 333.272 33.544 333.272 39.816C333.272 67.464 327.896 79.24 318.296 89.736C309.848 99.08 296.664 105.224 287.32 108.296L273.88 94.088C286.68 91.144 296.92 86.28 304.728 77.96C313.432 68.36 315.224 58.76 315.224 38.792C315.224 32.392 315.224 20.104 315.224 14.6C315.224 9.352 314.84 5.256 314.328 1.672H333.656ZM274.392 2.824C274.136 5.768 273.88 8.58399 273.88 12.552C273.88 18.184 273.88 48.648 273.88 55.816C273.88 59.016 274.136 64.008 274.392 66.952H255.704C255.96 64.648 256.344 59.656 256.344 55.688C256.344 48.392 256.344 18.184 256.344 12.552C256.344 10.248 256.216 5.768 255.832 2.824H274.392ZM370.648 41.736C375.384 42.12 384.6 42.632 391.256 42.632C406.36 42.632 448.6 42.632 459.992 42.632C466.008 42.632 471.64 41.992 475.096 41.736V61.96C472.024 61.832 465.496 61.192 460.12 61.192C448.472 61.192 406.36 61.192 391.256 61.192C384.088 61.192 375.512 61.576 370.648 61.96V41.736Z"
        fill="white" />
</svg>