<svg width="349" height="108" viewBox="0 0 349 108" fill="none" xmlns="http://www.w3.org/2000/svg">
    <path
        d="M78.656 0.671997C78.4 4.256 78.272 8.352 78.272 13.6C78.272 20.128 78.272 32.544 78.272 38.816C78.272 66.464 72.896 78.24 63.296 88.736C54.848 98.08 41.664 104.224 32.32 107.296L18.88 93.088C31.68 90.144 41.92 85.28 49.728 76.96C58.432 67.36 60.224 57.76 60.224 37.792C60.224 31.392 60.224 19.104 60.224 13.6C60.224 8.352 59.84 4.256 59.328 0.671997H78.656ZM19.392 1.824C19.136 4.768 18.88 7.58399 18.88 11.552C18.88 17.184 18.88 47.648 18.88 54.816C18.88 58.016 19.136 63.008 19.392 65.952H0.704C0.960001 63.648 1.344 58.656 1.344 54.688C1.344 47.392 1.344 17.184 1.344 11.552C1.344 9.24799 1.216 4.768 0.832001 1.824H19.392ZM206.656 0.671997C206.4 4.256 206.272 8.352 206.272 13.6C206.272 20.128 206.272 32.544 206.272 38.816C206.272 66.464 200.896 78.24 191.296 88.736C182.848 98.08 169.664 104.224 160.32 107.296L146.88 93.088C159.68 90.144 169.92 85.28 177.728 76.96C186.432 67.36 188.224 57.76 188.224 37.792C188.224 31.392 188.224 19.104 188.224 13.6C188.224 8.352 187.84 4.256 187.328 0.671997H206.656ZM147.392 1.824C147.136 4.768 146.88 7.58399 146.88 11.552C146.88 17.184 146.88 47.648 146.88 54.816C146.88 58.016 147.136 63.008 147.392 65.952H128.704C128.96 63.648 129.344 58.656 129.344 54.688C129.344 47.392 129.344 17.184 129.344 11.552C129.344 9.24799 129.216 4.768 128.832 1.824H147.392ZM243.648 40.736C248.384 41.12 257.6 41.632 264.256 41.632C279.36 41.632 321.6 41.632 332.992 41.632C339.008 41.632 344.64 40.992 348.096 40.736V60.96C345.024 60.832 338.496 60.192 333.12 60.192C321.472 60.192 279.36 60.192 264.256 60.192C257.088 60.192 248.512 60.576 243.648 60.96V40.736Z"
        fill="white" />
</svg>